<svg width="101" height="100" viewBox="0 0 101 100" fill="none" xmlns="http://www.w3.org/2000/svg">
<g clip-path="url(#clip0)">
<path d="M50.5001 0.00142462C78.1142 0.00142462 100.5 22.3872 100.5 50.0013C100.5 77.6154 78.1142 100.001 50.5001 100.001C22.886 100.001 0.500207 77.6154 0.500207 50.0013C0.421633 22.4655 22.6799 0.0799989 50.2154 0.00142462C50.3103 0.00115273 50.4052 0.00115273 50.5001 0.00142462Z" fill="#E73636"/>
<path d="M56.0812 31H45.5004L46.4829 57.6031H55.0987L56.0812 31ZM50.7908 70.3C53.5683 70.3 56.0434 67.9571 56.0812 65.0096C56.0434 62.1377 53.5683 59.7948 50.7908 59.7948C47.8622 59.7948 45.4627 62.1377 45.5004 65.0096C45.4627 67.9571 47.8622 70.3 50.7908 70.3Z" fill="white"/>
</g>
<defs>
<clipPath id="clip0">
<rect width="100" height="100" fill="white" transform="translate(0.5)"/>
</clipPath>
</defs>
</svg>
